<?xml version="1.0" standalone="no"?>
<!DOCTYPE svg PUBLIC "-//W3C//DTD SVG 20010904//EN"
 "http://www.w3.org/TR/2001/REC-SVG-20010904/DTD/svg10.dtd">
<svg version="1.0" xmlns="http://www.w3.org/2000/svg"
 width="182.000000pt" height="182.000000pt" viewBox="0 0 182.000000 182.000000"
 preserveAspectRatio="xMidYMid meet">
<metadata>
Created by potrace 1.14, written by Peter Selinger 2001-2017
</metadata>
<g transform="translate(0.000000,182.000000) scale(0.100000,-0.100000)"
fill="#000000" stroke="none">
<path d="M770 1644 c-14 -3 -54 -14 -90 -26 -253 -80 -443 -280 -512 -537 -27
-100 -28 -278 -4 -371 70 -262 257 -462 511 -547 73 -25 93 -27 235 -27 161 0
188 5 315 59 130 55 285 201 353 332 70 135 87 208 87 363 0 113 -4 147 -24
210 -41 132 -96 226 -191 321 -96 98 -186 155 -305 195 -69 23 -99 27 -215 30
-74 1 -146 0 -160 -2z m6 -445 c37 -35 49 -87 31 -132 -29 -69 -111 -96 -174
-57 -40 24 -54 50 -55 102 0 44 24 85 63 106 35 19 105 9 135 -19z m418 0 c64
-56 56 -145 -16 -189 -40 -24 -69 -25 -114 -4 -41 20 -64 59 -64 109 0 47 14
71 53 95 49 30 99 26 141 -11z m-412 -448 c48 -54 49 -104 2 -160 -45 -54
-125 -54 -176 1 -50 53 -34 147 31 184 43 24 110 12 143 -25z m412 8 c56 -49
60 -109 10 -169 -67 -79 -204 -27 -204 78 0 106 116 160 194 91z"/>
</g>
</svg>
